<svg width="24" height="24" viewBox="0 0 24 24" fill="none" xmlns="http://www.w3.org/2000/svg">
<path d="M12 20C11.2 19.3667 10.3333 18.875 9.4 18.525C8.46667 18.175 7.5 18 6.5 18C5.8 18 5.1125 18.0917 4.4375 18.275C3.7625 18.4583 3.11667 18.7167 2.5 19.05C2.15 19.2333 1.8125 19.225 1.4875 19.025C1.1625 18.825 1 18.5333 1 18.15V6.1C1 5.91667 1.04583 5.74167 1.1375 5.575C1.22917 5.40833 1.36667 5.28333 1.55 5.2C2.31667 4.8 3.11667 4.5 3.95 4.3C4.78333 4.1 5.63333 4 6.5 4C7.46667 4 8.4125 4.125 9.3375 4.375C10.2625 4.625 11.15 5 12 5.5V18.15C12.85 17.6 13.7417 17.1875 14.675 16.9125C15.6083 16.6375 16.55 16.5 17.5 16.5C18.1 16.5 18.7542 16.5583 19.4625 16.675C20.1708 16.7917 20.85 17.0333 21.5 17.4V4.775C21.6667 4.84167 21.8292 4.90833 21.9875 4.975C22.1458 5.04167 22.3 5.11667 22.45 5.2C22.6167 5.3 22.75 5.42917 22.85 5.5875C22.95 5.74583 23 5.91667 23 6.1V18.15C23 18.5333 22.8375 18.825 22.5125 19.025C22.1875 19.225 21.85 19.2333 21.5 19.05C20.8833 18.7167 20.2375 18.4583 19.5625 18.275C18.8875 18.0917 18.2 18 17.5 18C16.5 18 15.5333 18.175 14.6 18.525C13.6667 18.875 12.8 19.3667 12 20ZM13.5 15.825V7L20 0.5V10.175L13.5 15.825ZM10.5 17.4V6.425C9.93333 6.10833 9.275 5.875 8.525 5.725C7.775 5.575 7.1 5.5 6.5 5.5C5.71667 5.5 4.9875 5.58333 4.3125 5.75C3.6375 5.91667 3.03333 6.13333 2.5 6.4V17.4C3.08333 17.1167 3.7125 16.8958 4.3875 16.7375C5.0625 16.5792 5.775 16.5 6.525 16.5C7.25833 16.5 7.95833 16.5792 8.625 16.7375C9.29167 16.8958 9.91667 17.1167 10.5 17.4Z" fill="url(#paint0_linear_13_106)"/>
<defs>
<linearGradient id="paint0_linear_13_106" x1="12" y1="0.5" x2="12" y2="20" gradientUnits="userSpaceOnUse">
<stop stop-color="#FFB800"/>
<stop offset="1" stop-color="#FF8A00"/>
</linearGradient>
</defs>
</svg>
