<svg width="250" height="37" viewBox="0 0 250 37" fill="none" xmlns="http://www.w3.org/2000/svg">
<path d="M17.2734 22.5703C17.2734 24.4297 16.9219 26.1797 16.2188 27.8203C15.5156 29.4453 14.5547 30.8672 13.3359 32.0859C12.1328 33.2891 10.7109 34.2422 9.07031 34.9453C7.44531 35.6484 5.70312 36 3.84375 36C2.71875 36 1.59375 35.8594 0.46875 35.5781V28.3594C0.96875 28.6562 1.50781 28.8828 2.08594 29.0391C2.66406 29.1953 3.25 29.2734 3.84375 29.2734C4.76562 29.2734 5.63281 29.1016 6.44531 28.7578C7.27344 28.3984 7.99219 27.9141 8.60156 27.3047C9.21094 26.6953 9.6875 25.9844 10.0312 25.1719C10.3906 24.3594 10.5703 23.4922 10.5703 22.5703V2.39062H17.2734V22.5703Z" fill="#141414"/>
<path d="M46.3359 23.2266C46.3359 25.1016 46 26.8516 45.3281 28.4766C44.6562 30.0859 43.7422 31.4844 42.5859 32.6719C41.4297 33.8438 40.0703 34.7734 38.5078 35.4609C36.9609 36.1328 35.2969 36.4688 33.5156 36.4688C31.75 36.4688 30.0859 36.1328 28.5234 35.4609C26.9766 34.7734 25.6172 33.8438 24.4453 32.6719C23.2891 31.4844 22.375 30.0859 21.7031 28.4766C21.0312 26.8516 20.6953 25.1016 20.6953 23.2266C20.6953 21.3203 21.0312 19.5547 21.7031 17.9297C22.375 16.3047 23.2891 14.9062 24.4453 13.7344C25.6172 12.5469 26.9766 11.6172 28.5234 10.9453C30.0859 10.2734 31.75 9.9375 33.5156 9.9375C35.2969 9.9375 36.9609 10.2578 38.5078 10.8984C40.0703 11.5234 41.4297 12.4219 42.5859 13.5938C43.7422 14.75 44.6562 16.1484 45.3281 17.7891C46 19.4141 46.3359 21.2266 46.3359 23.2266ZM39.8906 23.2266C39.8906 22.1953 39.7188 21.2656 39.375 20.4375C39.0469 19.5938 38.5938 18.875 38.0156 18.2812C37.4375 17.6719 36.7578 17.2109 35.9766 16.8984C35.2109 16.5703 34.3906 16.4062 33.5156 16.4062C32.6406 16.4062 31.8125 16.5703 31.0312 16.8984C30.2656 17.2109 29.5938 17.6719 29.0156 18.2812C28.4531 18.875 28.0078 19.5938 27.6797 20.4375C27.3516 21.2656 27.1875 22.1953 27.1875 23.2266C27.1875 24.1953 27.3516 25.0938 27.6797 25.9219C28.0078 26.75 28.4531 27.4688 29.0156 28.0781C29.5938 28.6875 30.2656 29.1719 31.0312 29.5312C31.8125 29.875 32.6406 30.0469 33.5156 30.0469C34.3906 30.0469 35.2109 29.8828 35.9766 29.5547C36.7578 29.2266 37.4375 28.7656 38.0156 28.1719C38.5938 27.5781 39.0469 26.8594 39.375 26.0156C39.7188 25.1719 39.8906 24.2422 39.8906 23.2266Z" fill="#141414"/>
<path d="M74.1797 36H72.6328L70.1484 32.5547C69.5391 33.1016 68.8906 33.6172 68.2031 34.1016C67.5312 34.5703 66.8203 34.9844 66.0703 35.3438C65.3203 35.6875 64.5469 35.9609 63.75 36.1641C62.9688 36.3672 62.1719 36.4688 61.3594 36.4688C59.5938 36.4688 57.9297 36.1719 56.3672 35.5781C54.8203 34.9844 53.4609 34.125 52.2891 33C51.1328 31.8594 50.2188 30.4688 49.5469 28.8281C48.875 27.1875 48.5391 25.3203 48.5391 23.2266C48.5391 21.2734 48.875 19.4844 49.5469 17.8594C50.2188 16.2188 51.1328 14.8125 52.2891 13.6406C53.4609 12.4688 54.8203 11.5625 56.3672 10.9219C57.9297 10.2656 59.5938 9.9375 61.3594 9.9375C62.1719 9.9375 62.9766 10.0391 63.7734 10.2422C64.5703 10.4453 65.3438 10.7266 66.0938 11.0859C66.8438 11.4453 67.5547 11.8672 68.2266 12.3516C68.9141 12.8359 69.5547 13.3594 70.1484 13.9219L72.6328 10.9453H74.1797V36ZM67.7344 23.2266C67.7344 22.3516 67.5625 21.5078 67.2188 20.6953C66.8906 19.8672 66.4375 19.1406 65.8594 18.5156C65.2812 17.875 64.6016 17.3672 63.8203 16.9922C63.0547 16.6016 62.2344 16.4062 61.3594 16.4062C60.4844 16.4062 59.6562 16.5547 58.875 16.8516C58.1094 17.1484 57.4375 17.5859 56.8594 18.1641C56.2969 18.7422 55.8516 19.4609 55.5234 20.3203C55.1953 21.1641 55.0312 22.1328 55.0312 23.2266C55.0312 24.3203 55.1953 25.2969 55.5234 26.1562C55.8516 27 56.2969 27.7109 56.8594 28.2891C57.4375 28.8672 58.1094 29.3047 58.875 29.6016C59.6562 29.8984 60.4844 30.0469 61.3594 30.0469C62.2344 30.0469 63.0547 29.8594 63.8203 29.4844C64.6016 29.0938 65.2812 28.5859 65.8594 27.9609C66.4375 27.3203 66.8906 26.5938 67.2188 25.7812C67.5625 24.9531 67.7344 24.1016 67.7344 23.2266ZM68.5547 0.304688C68.6484 0.585938 68.7344 0.890625 68.8125 1.21875C68.875 1.5 68.9297 1.82031 68.9766 2.17969C69.0391 2.53906 69.0703 2.92188 69.0703 3.32812C69.0703 4.10938 68.9531 4.8125 68.7188 5.4375C68.4844 6.04688 68.1641 6.57031 67.7578 7.00781C67.3672 7.42969 66.8906 7.75781 66.3281 7.99219C65.7812 8.21094 65.1953 8.32031 64.5703 8.32031C63.8672 8.32031 63.2656 8.17188 62.7656 7.875C62.2656 7.5625 61.8203 7.22656 61.4297 6.86719C61.0547 6.49219 60.6953 6.15625 60.3516 5.85938C60.0234 5.54688 59.6719 5.39062 59.2969 5.39062C59 5.39062 58.7578 5.52344 58.5703 5.78906C58.3828 6.05469 58.2891 6.32031 58.2891 6.58594C58.2891 6.89844 58.3359 7.20312 58.4297 7.5C58.5391 7.78125 58.6797 8.05469 58.8516 8.32031L54.4453 8.50781C54.2891 8.22656 54.1484 7.89844 54.0234 7.52344C53.9141 7.21094 53.8203 6.83594 53.7422 6.39844C53.6641 5.94531 53.625 5.44531 53.625 4.89844C53.625 3.50781 54.0469 2.42188 54.8906 1.64062C55.7344 0.84375 56.8828 0.445312 58.3359 0.445312C58.9453 0.445312 59.4609 0.523438 59.8828 0.679688C60.3203 0.820312 60.6953 1 61.0078 1.21875C61.3359 1.4375 61.6172 1.67969 61.8516 1.94531C62.0859 2.19531 62.2969 2.42969 62.4844 2.64844C62.6875 2.86719 62.8828 3.05469 63.0703 3.21094C63.2734 3.35156 63.5 3.42188 63.75 3.42188C64.0156 3.42188 64.2188 3.30469 64.3594 3.07031C64.5 2.83594 64.5703 2.53906 64.5703 2.17969C64.5703 1.75781 64.4453 1.33594 64.1953 0.914062L68.5547 0.304688Z" fill="#141414"/>
<path d="M103.336 23.2266C103.336 25.1016 103 26.8516 102.328 28.4766C101.656 30.0859 100.742 31.4844 99.5859 32.6719C98.4297 33.8438 97.0703 34.7734 95.5078 35.4609C93.9609 36.1328 92.2969 36.4688 90.5156 36.4688C88.75 36.4688 87.0859 36.1328 85.5234 35.4609C83.9766 34.7734 82.6172 33.8438 81.4453 32.6719C80.2891 31.4844 79.375 30.0859 78.7031 28.4766C78.0312 26.8516 77.6953 25.1016 77.6953 23.2266C77.6953 21.3203 78.0312 19.5547 78.7031 17.9297C79.375 16.3047 80.2891 14.9062 81.4453 13.7344C82.6172 12.5469 83.9766 11.6172 85.5234 10.9453C87.0859 10.2734 88.75 9.9375 90.5156 9.9375C92.2969 9.9375 93.9609 10.2578 95.5078 10.8984C97.0703 11.5234 98.4297 12.4219 99.5859 13.5938C100.742 14.75 101.656 16.1484 102.328 17.7891C103 19.4141 103.336 21.2266 103.336 23.2266ZM96.8906 23.2266C96.8906 22.1953 96.7188 21.2656 96.375 20.4375C96.0469 19.5938 95.5938 18.875 95.0156 18.2812C94.4375 17.6719 93.7578 17.2109 92.9766 16.8984C92.2109 16.5703 91.3906 16.4062 90.5156 16.4062C89.6406 16.4062 88.8125 16.5703 88.0312 16.8984C87.2656 17.2109 86.5938 17.6719 86.0156 18.2812C85.4531 18.875 85.0078 19.5938 84.6797 20.4375C84.3516 21.2656 84.1875 22.1953 84.1875 23.2266C84.1875 24.1953 84.3516 25.0938 84.6797 25.9219C85.0078 26.75 85.4531 27.4688 86.0156 28.0781C86.5938 28.6875 87.2656 29.1719 88.0312 29.5312C88.8125 29.875 89.6406 30.0469 90.5156 30.0469C91.3906 30.0469 92.2109 29.8828 92.9766 29.5547C93.7578 29.2266 94.4375 28.7656 95.0156 28.1719C95.5938 27.5781 96.0469 26.8594 96.375 26.0156C96.7188 25.1719 96.8906 24.2422 96.8906 23.2266Z" fill="#141414"/>
<path d="M127.734 9.11719V22.5703H134.461C135.383 22.5703 136.25 22.3984 137.062 22.0547C137.875 21.6953 138.586 21.2109 139.195 20.6016C139.805 19.9922 140.281 19.2812 140.625 18.4688C140.984 17.6406 141.164 16.7656 141.164 15.8438C141.164 14.9219 140.984 14.0547 140.625 13.2422C140.281 12.4141 139.805 11.6953 139.195 11.0859C138.586 10.4766 137.875 10 137.062 9.65625C136.25 9.29688 135.383 9.11719 134.461 9.11719H127.734ZM127.734 36H121.008V2.39062H134.461C135.695 2.39062 136.883 2.55469 138.023 2.88281C139.164 3.19531 140.227 3.64844 141.211 4.24219C142.211 4.82031 143.117 5.52344 143.93 6.35156C144.758 7.16406 145.461 8.07031 146.039 9.07031C146.633 10.0703 147.086 11.1406 147.398 12.2812C147.727 13.4219 147.891 14.6094 147.891 15.8438C147.891 17.6875 147.539 19.4297 146.836 21.0703C146.133 22.6953 145.172 24.1172 143.953 25.3359C142.734 26.5547 141.305 27.5156 139.664 28.2188C138.039 28.9219 136.305 29.2734 134.461 29.2734H127.734V36Z" fill="#141414"/>
<path d="M161.156 29.8594C161.406 29.9375 161.656 29.9922 161.906 30.0234C162.156 30.0391 162.406 30.0469 162.656 30.0469C163.281 30.0469 163.883 29.9609 164.461 29.7891C165.039 29.6172 165.578 29.375 166.078 29.0625C166.594 28.7344 167.047 28.3438 167.438 27.8906C167.844 27.4219 168.172 26.9062 168.422 26.3438L173.109 31.0547C172.516 31.8984 171.828 32.6562 171.047 33.3281C170.281 34 169.445 34.5703 168.539 35.0391C167.648 35.5078 166.703 35.8594 165.703 36.0938C164.719 36.3438 163.703 36.4688 162.656 36.4688C160.891 36.4688 159.227 36.1406 157.664 35.4844C156.117 34.8281 154.758 33.9141 153.586 32.7422C152.43 31.5703 151.516 30.1797 150.844 28.5703C150.172 26.9453 149.836 25.1641 149.836 23.2266C149.836 21.2422 150.172 19.4297 150.844 17.7891C151.516 16.1484 152.43 14.75 153.586 13.5938C154.758 12.4375 156.117 11.5391 157.664 10.8984C159.227 10.2578 160.891 9.9375 162.656 9.9375C163.703 9.9375 164.727 10.0625 165.727 10.3125C166.727 10.5625 167.672 10.9219 168.562 11.3906C169.469 11.8594 170.312 12.4375 171.094 13.125C171.875 13.7969 172.562 14.5547 173.156 15.3984L161.156 29.8594ZM164.438 16.6641C164.141 16.5547 163.844 16.4844 163.547 16.4531C163.266 16.4219 162.969 16.4062 162.656 16.4062C161.781 16.4062 160.953 16.5703 160.172 16.8984C159.406 17.2109 158.734 17.6641 158.156 18.2578C157.594 18.8516 157.148 19.5703 156.82 20.4141C156.492 21.2422 156.328 22.1797 156.328 23.2266C156.328 23.4609 156.336 23.7266 156.352 24.0234C156.383 24.3203 156.422 24.625 156.469 24.9375C156.531 25.2344 156.602 25.5234 156.68 25.8047C156.758 26.0859 156.859 26.3359 156.984 26.5547L164.438 16.6641Z" fill="#141414"/>
<path d="M200.461 36H198.914L196.43 32.5547C195.82 33.1016 195.172 33.6172 194.484 34.1016C193.812 34.5703 193.102 34.9844 192.352 35.3438C191.602 35.6875 190.828 35.9609 190.031 36.1641C189.25 36.3672 188.453 36.4688 187.641 36.4688C185.875 36.4688 184.211 36.1406 182.648 35.4844C181.102 34.8125 179.742 33.8906 178.57 32.7188C177.414 31.5312 176.5 30.1328 175.828 28.5234C175.156 26.8984 174.82 25.1328 174.82 23.2266C174.82 21.3359 175.156 19.5781 175.828 17.9531C176.5 16.3281 177.414 14.9219 178.57 13.7344C179.742 12.5469 181.102 11.6172 182.648 10.9453C184.211 10.2734 185.875 9.9375 187.641 9.9375C188.203 9.9375 188.781 9.98438 189.375 10.0781C189.984 10.1719 190.57 10.3281 191.133 10.5469C191.711 10.75 192.25 11.0234 192.75 11.3672C193.25 11.7109 193.672 12.1328 194.016 12.6328V0.914062H200.461V36ZM194.016 23.2266C194.016 22.3516 193.844 21.5078 193.5 20.6953C193.172 19.8672 192.719 19.1406 192.141 18.5156C191.562 17.875 190.883 17.3672 190.102 16.9922C189.336 16.6016 188.516 16.4062 187.641 16.4062C186.766 16.4062 185.938 16.5625 185.156 16.875C184.391 17.1875 183.719 17.6406 183.141 18.2344C182.578 18.8125 182.133 19.5234 181.805 20.3672C181.477 21.2109 181.312 22.1641 181.312 23.2266C181.312 24.1484 181.477 25.0234 181.805 25.8516C182.133 26.6797 182.578 27.4062 183.141 28.0312C183.719 28.6562 184.391 29.1484 185.156 29.5078C185.938 29.8672 186.766 30.0469 187.641 30.0469C188.516 30.0469 189.336 29.8594 190.102 29.4844C190.883 29.0938 191.562 28.5859 192.141 27.9609C192.719 27.3203 193.172 26.5938 193.5 25.7812C193.844 24.9531 194.016 24.1016 194.016 23.2266Z" fill="#141414"/>
<path d="M211.758 36H205.359V10.8984H206.906L209.016 13.875C210.047 12.9375 211.219 12.2188 212.531 11.7188C213.844 11.2031 215.203 10.9453 216.609 10.9453H222.258V17.3203H216.609C215.938 17.3203 215.305 17.4453 214.711 17.6953C214.117 17.9453 213.602 18.2891 213.164 18.7266C212.727 19.1641 212.383 19.6797 212.133 20.2734C211.883 20.8672 211.758 21.5 211.758 22.1719V36Z" fill="#141414"/>
<path d="M249.023 23.2266C249.023 25.1016 248.688 26.8516 248.016 28.4766C247.344 30.0859 246.43 31.4844 245.273 32.6719C244.117 33.8438 242.758 34.7734 241.195 35.4609C239.648 36.1328 237.984 36.4688 236.203 36.4688C234.438 36.4688 232.773 36.1328 231.211 35.4609C229.664 34.7734 228.305 33.8438 227.133 32.6719C225.977 31.4844 225.062 30.0859 224.391 28.4766C223.719 26.8516 223.383 25.1016 223.383 23.2266C223.383 21.3203 223.719 19.5547 224.391 17.9297C225.062 16.3047 225.977 14.9062 227.133 13.7344C228.305 12.5469 229.664 11.6172 231.211 10.9453C232.773 10.2734 234.438 9.9375 236.203 9.9375C237.984 9.9375 239.648 10.2578 241.195 10.8984C242.758 11.5234 244.117 12.4219 245.273 13.5938C246.43 14.75 247.344 16.1484 248.016 17.7891C248.688 19.4141 249.023 21.2266 249.023 23.2266ZM242.578 23.2266C242.578 22.1953 242.406 21.2656 242.062 20.4375C241.734 19.5938 241.281 18.875 240.703 18.2812C240.125 17.6719 239.445 17.2109 238.664 16.8984C237.898 16.5703 237.078 16.4062 236.203 16.4062C235.328 16.4062 234.5 16.5703 233.719 16.8984C232.953 17.2109 232.281 17.6719 231.703 18.2812C231.141 18.875 230.695 19.5938 230.367 20.4375C230.039 21.2656 229.875 22.1953 229.875 23.2266C229.875 24.1953 230.039 25.0938 230.367 25.9219C230.695 26.75 231.141 27.4688 231.703 28.0781C232.281 28.6875 232.953 29.1719 233.719 29.5312C234.5 29.875 235.328 30.0469 236.203 30.0469C237.078 30.0469 237.898 29.8828 238.664 29.5547C239.445 29.2266 240.125 28.7656 240.703 28.1719C241.281 27.5781 241.734 26.8594 242.062 26.0156C242.406 25.1719 242.578 24.2422 242.578 23.2266Z" fill="#141414"/>
</svg>
